<svg width="12" height="13" viewBox="0 0 12 13" fill="none" xmlns="http://www.w3.org/2000/svg">
<g id="image">
<g id="Group">
<path id="Vector" d="M3.00001 9.98001V3.69201C2.98461 3.56982 2.99551 3.44575 3.03198 3.32812C3.06845 3.21049 3.12964 3.10202 3.21146 3.00997C3.29328 2.91793 3.39383 2.84443 3.50638 2.79442C3.61892 2.74441 3.74085 2.71904 3.86401 2.72001C4.1001 2.70993 4.3333 2.77506 4.53001 2.90601L9.64801 5.90601C10.104 6.17001 10.35 6.38601 10.35 6.81201C10.35 7.23801 10.104 7.45401 9.64801 7.71801L4.53001 10.718C4.3333 10.849 4.1001 10.9141 3.86401 10.904C3.74479 10.9061 3.62646 10.8832 3.51666 10.8367C3.40687 10.7902 3.30806 10.7211 3.22662 10.6341C3.14519 10.547 3.08294 10.4437 3.0439 10.3311C3.00486 10.2184 2.98991 10.0988 3.00001 9.98001Z" fill="black"/>
</g>
</g>
</svg>
